<?xml version="1.0" encoding="UTF-8"?><svg id="Layer_1" xmlns="http://www.w3.org/2000/svg" viewBox="0 0 1200 1200"><path d="M874.0637,671.4815v-4.3114h10.2351c3.1196,0,4.9772-1.9625,4.9772-4.8368,0-2.9452-1.8576-4.8021-4.9772-4.8021h-13.4944v21.0303h-4.4163v-25.4821h17.9107c5.889,0,9.3241,3.54,9.3241,9.1135,0,5.5025-3.4351,9.2886-9.3241,9.2886h-10.2351Z" fill="#ff8600"/><path d="M895.0608,653.0795h5.4331l11.5666,19.6279,11.5319-19.6279h5.1176l-14.6862,24.3952c-.5261.8771-1.2273,1.4371-2.1384,1.4371-.9812,0-1.647-.5601-2.1731-1.4371l-14.6515-24.3952Z" fill="#ff8600"/><path d="M939.613,678.5616v-21.0303h-9.6735v-4.4518h23.7997v4.4518h-9.6743v21.0303h-4.4518Z" fill="#ff8600"/><path d="M955.0721,678.8424c-1.3322,0-2.3482-1.0522-2.3482-2.3837s1.016-2.3837,2.3482-2.3837c1.3669,0,2.4184,1.0522,2.4184,2.3837s-1.0514,2.3837-2.4184,2.3837Z" fill="#ff8600"/><path d="M961.9068,678.5616v-25.4821h4.4518v21.0303h17.1401v4.4518h-21.5919Z" fill="#092856"/><path d="M990.9305,678.5616v-21.0303h-9.6751v-4.4518h23.8004v4.4518h-9.6735v21.0303h-4.4518Z" fill="#092856"/><path d="M1008.0011,678.5616v-25.4821h14.7564c7.1857,0,12.4074,5.0828,12.4074,12.4784s-5.2217,13.0037-12.4074,13.0037h-14.7564ZM1022.7575,674.1098c4.5922,0,7.9571-3.54,7.9571-8.3421s-3.3649-8.2364-7.9571-8.2364h-10.3408v16.5785h10.3408Z" fill="#092856"/><path d="M354.4084,518.0124h19.1602v94.4591h-18.7772l-.958-15.3283c-2.9376,5.7487-7.5041,10.1555-13.6994,13.2205-6.1954,3.0658-12.4858,4.5988-18.8723,4.5988-14.1793.1274-25.8031-4.2149-34.8715-13.0294-9.0693-8.8136-13.6043-21.0761-13.6043-36.7875,0-15.3275,4.631-27.3666,13.8914-36.1165,9.2603-8.7499,20.9165-13.1245,34.9675-13.1245,6.7695,0,13.0922,1.5329,18.9683,4.5979,5.876,3.0658,10.2829,7.217,13.2205,12.4544l.575-14.9445ZM301.3346,542.4414c-5.876,5.6841-8.8136,13.2519-8.8136,22.7042s2.9376,17.0532,8.8136,22.801c5.876,5.7478,13.1568,8.6217,21.843,8.6217,5.6204,0,10.6336-1.1491,15.0404-3.4489,4.4068-2.299,7.7283-5.3002,9.9635-9.0047,2.2353-3.7045,3.8956-7.7597,4.9818-12.1665,1.0854-4.4068,1.0854-8.8459,0-13.3164-1.0862-4.4714-2.7474-8.5589-4.9818-12.2625-2.2353-3.7045-5.5567-6.7066-9.9635-9.0056-4.4068-2.299-9.42-3.4489-15.0404-3.4489-8.6862,0-15.967,2.8425-21.843,8.5266Z" fill="#ff8600"/><path d="M400.3925,656.3486v-138.3362h18.5852l1.1491,15.3275c3.4489-5.4922,8.2073-9.7393,14.2744-12.7415,6.068-3.0013,12.4221-4.5028,19.0642-4.5028,14.051.1282,25.5152,4.7907,34.3925,13.9873,8.8782,9.1967,13.3164,20.9487,13.3164,35.2545,0,14.434-4.3431,26.2498-13.0285,35.4465-8.6862,9.1967-20.2464,13.7954-34.6804,13.7954-6.5138,0-12.8689-1.3096-19.0642-3.9278-6.1945-2.6191-10.9529-6.6107-14.2744-11.9754v57.6725h-19.7343ZM473.0094,586.9886c5.6196-5.6204,8.4298-12.8374,8.4298-21.6511,0-8.941-2.7457-16.1903-8.2387-21.747-5.4922-5.5559-12.7092-8.3347-21.6511-8.3347s-16.1258,2.8748-21.5551,8.6226c-5.4285,5.7478-8.1427,12.9011-8.1427,21.4591s2.8102,15.7113,8.4306,21.4591c5.6204,5.7487,12.7092,8.6226,21.2672,8.6226,8.6862,0,15.8396-2.8102,21.46-8.4306Z" fill="#ff8600"/><path d="M526.0815,479.5001c4.0875-2.0433,8.175-2.0433,12.2625,0,4.0875,2.0442,6.1308,5.6204,6.1308,10.7296s-2.0433,8.7177-6.1308,10.8255c-4.0875,2.1079-8.175,2.1079-12.2625,0-4.0875-2.1079-6.1317-5.7164-6.1317-10.8255s2.0442-8.6862,6.1317-10.7296Z" fill="#092856"/><rect x="522.2496" y="517.6285" width="19.7343" height="94.843" fill="#ff8600"/><path d="M663.8428,478.5421v133.9294h-18.5852l-1.1499-14.9453c-6.8977,11.2408-17.8192,16.8612-32.7637,16.8612-14.051,0-25.6112-4.4068-34.6796-13.2205-9.0693-8.8136-13.6043-20.8205-13.6043-36.0214,0-15.5831,4.4391-27.6859,13.3164-36.3085,8.8773-8.6217,20.4061-12.9326,34.5845-12.9326,6.2591,0,12.6132,1.5006,19.0642,4.5028,6.4501,3.0013,11.1449,7.1211,14.0825,12.3585v-54.2237h19.7351ZM591.3218,542.7284c-5.6841,5.493-8.5266,12.9648-8.5266,22.4171,0,9.3249,2.8425,16.7975,8.5266,22.418,5.6841,5.6204,12.8052,8.4306,21.3632,8.4306,8.4306,0,15.5517-2.8748,21.364-8.6226,5.8115-5.7478,8.7177-13.1568,8.7177-22.226,0-8.941-2.9062-16.2854-8.7177-22.0341-5.8123-5.7478-12.9334-8.6217-21.364-8.6217-8.558,0-15.6791,2.7465-21.3632,8.2387Z" fill="#ff8600"/><rect x="826.7039" y="525.5233" width="19.7343" height="86.9482" fill="#092856"/><path d="M943.3895,518.0124v9.1967l-47.5175,65.9103h47.9005v19.3521h-78.1741v-8.0476l48.8589-68.4012h-45.6011v-18.0103h74.5333Z" fill="#092856"/><path d="M1034.7819,518.0124v9.1967l-47.517,65.9103h47.9001v19.3521h-78.1737v-8.0476l48.8589-68.4012h-45.6011v-18.0103h74.5329Z" fill="#092856"/><path d="M794.5735,549.8368c-4.985,3.828-10.2454,7.886-15.4026,11.8727,3.2,3.2671,4.8051,7.3482,4.8051,12.2506,0,6.6421-2.8739,11.3996-8.6217,14.2735-5.7478,2.8748-12.3262,4.3117-19.7351,4.3117h-16.3456c-4.3543,3.3266-7.0203,5.3115-7.9373,5.8837l-.121.0739-7.1087,4.1954c-5.4433,3.2132-11.0062,6.4958-16.5793,9.7733h48.092c9.4523,0,17.7232-1.0854,24.8129-3.2569,7.0888-2.1716,13.0285-6.2276,17.8184-12.1674,4.7907-5.9389,7.1856-13.5712,7.1856-22.8961,0-6.0034-1.9482-12.1028-5.8438-18.2982-1.4337-2.2794-3.1095-4.2813-5.0187-6.0162Z" fill="#092856"/><path d="M715.3827,586.3559v-33.2809h40.1755c2.4624-2.0293,4.9149-4.0497,7.3411-6.0484,14.5603-11.9945,28.5706-23.5364,38.2929-31.687-.2869-12.1047-4.4845-21.2479-12.6176-27.4089-8.4306-6.3864-19.4158-9.5805-32.9556-9.5805h-61.5035v126.0998c5.3419-4.686,12.7405-10.9587,21.2672-18.0942ZM715.3827,497.7023h40.2363c7.5363,0,13.4761,1.9482,17.8192,5.8438,4.3431,3.8956,6.5147,8.3983,6.5147,13.5084,0,5.3648-2.0442,9.516-6.1317,12.4536s-10.0909,4.4068-18.0103,4.4068h-40.4282v-36.2125Z" fill="#092856"/><path d="M965.7806,623.9065c-34.0876-.5414-67.906,3.1142-101.8099,5.3669-32.0954,2.1325-64.1546,4.9998-96.3633,3.8514-17.4049-.6204-34.0574-2.6956-49.809-6.5648-5.9162,3.9847-11.7492,7.8973-17.5274,11.7419,31.6106,9.3081,65.719,11.626,100.8919,10.6655,18.5997-.5079,37.1984-1.5786,55.7638-3.1508,26.2783-2.2251,52.5965-4.1964,78.9276-5.962,23.9038-1.6028,47.6706-1.7684,71.0456,2.1917,18.2385,3.09,35.2732,8.0013,51.9075,13.6614.2014-.1911.4222-.3711.6625-.5403-24.0695-19.977-55.1023-30.6484-93.6893-31.2609Z" fill="#ff8600"/><path d="M688.4628,618.1242v-8.6327c-19.0507,17.6294-40.68,33.6989-64.9917,48.1648-28.2014,16.7806-59.1071,29.8443-93.4942,38.431-10.6672,2.6637-28.941,7.0455-32.3393,6.1656-.4179-.0057-.8432-.0652-1.2524-.0091-72.6832,9.9555-130.0595-4.923-173.5386-41.5011-17.9207-15.0763-76.5791-77.41-95.6017-97.7343,9.765-2.2692,17.1918-6.6918,22.2602-13.2863,5.9397-7.7283,8.9096-16.8927,8.9096-27.4948,0-12.0069-4.1835-22.322-12.5504-30.9437-8.3661-8.6217-19.9585-12.9334-34.7756-12.9334-6.8977,0-17.308-.0314-31.2307-.0951-13.9228-.0645-24.333-.096-31.2307-.096v134.3124h21.4591v-46.3671h29.4489l60.5942,67.2853c15.524,14.288,31.2938,28.4373,47.8185,42.161,26.2663,21.8143,59.6524,36.6688,100.7803,43.4892,42.6789,7.078,85.8816,4.5036,129.3256-6.4047,12.2826-3.0841,24.7203-6.1773,35.7933-11.5882,2.7364-1.7575,6.3601-1.5486,9.4686-2.7416,34.7715-13.3419,66.0319-29.9942,92.9092-50.6098,12.5925-9.6587,24.7733-19.547,36.7088-29.5713h-24.4709ZM170.0863,497.8942h41.0023c8.3032,0,14.626,2.4586,18.9691,7.3767,4.3423,4.9172,6.5138,10.6973,6.5138,17.3394,0,6.7703-2.1716,12.4544-6.5138,17.0523-4.3431,4.5988-10.7304,6.8977-19.1602,6.8977h-40.8113v-48.6661Z" fill="#ff8600"/><path d="M846.4368,484.6901c.7712,5.4331,3.8223,8.7141,8.813,10.5488-1.2105,1.754-2.2185,3.452-3.4536,4.9644-6.2683,7.6749-14.1817,13.0092-23.5534,16.1513-1.4589.4891-3.0772.5363-4.6317.6824-.3772.0354-.8983-.2527-1.1735-.5554-.9878-1.0868-1.8657-2.2734-2.8502-3.3635-.6469-.7162-.4429-1.4958-.1645-2.1612.8854-2.1159,1.6435-4.3435,2.8897-6.2395,4.6108-7.0153,10.3971-12.8863,17.7598-17.0469,1.9643-1.11,4.0936-1.9278,6.3645-2.9804ZM839.8106,503.4972c2.6685.2682,4.9455-1.5866,5.2188-4.2511.2695-2.6281-1.6426-4.9729-4.2657-5.231-2.6479-.2605-4.9527,1.6325-5.2075,4.2773-.26,2.6976,1.5688,4.9349,4.2544,5.2048Z" fill="#092856"/><path d="M860.3871,482.1694c-.3439,1.1701-.5745,2.2439-.9723,3.2518-1.065,2.6986-2.2166,5.3629-3.3008,8.0541-.3351.8319-.7679.8499-1.5363.5217-3.8834-1.6588-6.3508-4.4359-7.099-8.6561-.0982-.554-.0159-.8637.5719-1.0429,3.8171-1.1641,7.7081-1.919,11.6915-2.1857.1294-.0087.2614.0215.6449.057Z" fill="#ff8600"/><path d="M814.463,525.5045c.0115-.8248.0187-1.3394.0267-1.9146-2.3576.9035-4.6744,1.7913-6.9911,2.6791-.0758-.0997-.1517-.1994-.2275-.2991.6156-1.0846,1.2018-2.1872,1.8551-3.2486.6404-1.0405,1.349-2.0391,2.0878-3.1462-.6278-.1099-1.1618-.2033-1.9569-.3425.6052-.4519,1.0252-.7955,1.4744-1.0957,1.643-1.0978,3.3298-2.0978,5.3429-2.3722,2.2784-.3105,3.7709,1.4222,3.0529,3.5959-.8213,2.4861-2.6013,4.2365-4.6643,6.1438Z" fill="#ff8600"/><path d="M821.629,524.551c1.5361-2.171,3.0687-4.3445,4.616-6.5075.1072-.1498.3101-.2671.4919-.3222,1.8739-.5682,3.7526-1.1204,5.6989-1.6975-.1133,1.2259-.2121,2.4761-.3626,3.7199-.0215.1778-.2633.3893-.4532.4774-3.2665,1.515-6.5409,3.0131-9.8135,4.5148-.0591-.0616-.1183-.1232-.1774-.1849Z" fill="#ff8600"/><path d="M821.7548,503.4861c-.9464,1.8951-1.8307,3.6804-2.7349,5.4557-.097.1905-.2811.3827-.4725.4723-2.2905,1.0714-4.5901,2.1236-7.0483,3.2549.1099-.2912.1353-.446.2167-.5612,1.96-2.7761,3.9078-5.5613,5.915-8.303.2347-.3206.8007-.5517,1.2161-.5563.9516-.0104,1.905.145,2.9079.2377Z" fill="#ff8600"/><path d="M817.6307,513.3902c1.4558-.1063,4.6046,3.7576,4.2117,5.1609-1.3921-1.7058-2.7964-3.4266-4.2117-5.1609Z" fill="#ff8600"/><path d="M812.7149,526.133l-5.8077,2.2251-1.7151-2.248.566-.9987c.1843-.3236.3656-.6497.5469-.9758.4246-.7635.8641-1.5525,1.3393-2.3253.2059-.3346.4153-.6599.6293-.9843l-3.2866-.5758,3.7699-2.8212c.3677-.2811.682-.5197,1.0089-.7389.0011-.0008.0024-.0015.0024-.0015-.0723-.289-.1399-.5805-.1979-.8767-15.9073,14.1357-103.2397,84.3758-118.1355,98.6974,1.5255.5217,2.5073-.659,3.5978-1.2949,10.515-6.1315,20.9981-12.3175,31.4904-18.4882,4.6415-2.8888,80.9899-62.912,85.9909-65.1931.0689-.2471.1176-.4892.164-.7306l.037-2.6694Z" fill="#ff8600"/><path d="M691.4072,614.5356c.0085-.0083.019-.0178.0276-.0263-.0326-.011-.0618-.0117-.0949-.0244l.0673.0507Z" fill="#ff8600"/></svg>